<svg width="30" height="30" viewBox="0 0 30 30" xmlns="http://www.w3.org/2000/svg"><title>logo/main</title><path d="M7.93 1.755c0-.17.07-.254.176-.255H13.5c-.022 0 4.146.765 6.893 1.272l4.766.88 1.568.29.595.11c.073.02.15.117.15.227v3.86c-.01.246.018.215-.232.215H15.65c-.276 0-.5.224-.5.5v5.036c0 .277.224.5.5.5h5.9c-.068.973-.387 1.503-1.204 2.378-.914.977-1.32 1.655-1.417 2.816h-3.28c-.275 0-.5.224-.5.5v4.622c0 2.248-1.685 3.79-3.56 3.79-1.903 0-3.656-1.557-3.656-3.79v-8.98c0-.238-.168-.443-.402-.49-.158-.03-.3-.05-.566-.082-.44-.053-.598-.076-.814-.13-.214-.052-.4-.123-.57-.218-1.195-.668-1.607-1.042-1.882-1.86l-.038-.106c-.075-.208-.09-.257-.087-.31.04-.086.13-.142.23-.142h3.63c.277 0 .5-.224.5-.5v-3.97c0-.275-.223-.5-.5-.5-2.35-.002-3.528-.005-3.534-.006-.24-.088-.19-.07-.26-.1-.078-.034-.124-.065-.1-.016-.035-.07-.02-.172.063-.302C5.075 4.7 5.5 4.39 7.454 4.296c.267-.012.476-.232.476-.5v-2.04zm3.59 24.255c.828-.006 1.495-.682 1.49-1.51-.006-.828-.682-1.496-1.51-1.49-.828.005-1.496.68-1.49 1.51.005.828.68 1.495 1.51 1.49zM10.5 12.73v5h2v-5h-2z" fill="#FFC521" fill-rule="evenodd"/></svg>