<?xml version="1.0" encoding="UTF-8"?>
<svg width="288px" height="60px" viewBox="0 0 288 60" version="1.1" xmlns="http://www.w3.org/2000/svg" xmlns:xlink="http://www.w3.org/1999/xlink">
    <!-- Generator: Sketch 47 (45396) - http://www.bohemiancoding.com/sketch -->
    <title>logo/text-alt</title>
    <desc>Created with Sketch.</desc>
    <defs></defs>
    <g id="Symbols" stroke="none" stroke-width="1" fill="none" fill-rule="evenodd">
        <g id="logo/text-alt">
            <path d="M51,48.5 L277.5,48.5" id="Line" stroke="#FFFFFF" stroke-width="4" stroke-linecap="square"></path>
            <g id="logo/main" fill="#FFC521">
                <path d="M15.8618062,3.50960245 C15.859568,3.16746079 15.9991489,3.00247712 16.2128835,3 L26.9999214,3 C26.95557,3.00029967 35.2921108,4.53024416 40.7851794,5.54345457 C43.8210945,6.10344396 47.0705974,6.70343689 50.3179124,7.30343042 C52.1578799,7.64342768 52.1578799,7.64342768 53.4562566,7.88342481 C54.4298961,8.06342153 54.4298961,8.06342153 54.6461783,8.10341687 C54.7921252,8.14531048 54.9431694,8.33891795 54.9444931,8.55725952 L54.9444748,16.2824387 C54.9254888,16.7720816 54.9821976,16.7097559 54.481395,16.7097559 L31.2964896,16.7097559 C30.7442049,16.7097559 30.2964896,17.1574712 30.2964896,17.7097559 L30.2964896,27.7815713 C30.2964896,28.3338561 30.7442049,28.7815713 31.2964896,28.7815713 L43.0973653,28.7815713 C42.9608452,30.7257066 42.3213914,31.7869254 40.6872407,33.5352786 C38.8594373,35.4907074 38.0476401,36.8465802 37.8543195,39.1677412 L31.2964896,39.1677412 C30.7442049,39.1677412 30.2964896,39.6154565 30.2964896,40.1677412 L30.2964896,49.4122578 C30.2964896,53.9082009 26.9244111,56.9906432 23.1711971,56.9906432 C19.3672157,56.9906432 15.8618062,53.8773442 15.8618062,49.4122578 L15.8618062,31.4541268 C15.8618062,30.9766897 15.5243031,30.5658453 15.0559503,30.4731538 C14.7399152,30.4106074 14.4567542,30.3709921 13.9237276,30.3075126 C13.045032,30.2028664 12.7279134,30.1557877 12.2955293,30.0488951 C11.8672244,29.943011 11.4950372,29.8027689 11.1559231,29.6129163 C8.76640222,28.2751459 7.94207927,27.5273366 7.39122173,25.8935718 C7.35272696,25.7815228 7.35272696,25.7815228 7.31591066,25.6792635 C7.16584203,25.2644011 7.13751638,25.1661739 7.14272844,25.0578432 C7.22284998,24.8880023 7.3996769,24.7768653 7.60235846,24.7755864 L14.8618062,24.7756063 C15.4140909,24.7756063 15.8618062,24.3278911 15.8618062,23.7756063 L15.8618062,15.8387882 C15.8618062,15.2865034 15.4140909,14.8387882 14.8618062,14.8387882 C10.1594074,14.8320038 7.8030987,14.8267688 7.79288018,14.8230833 C7.30931922,14.6486778 7.41041404,14.68609 7.27095249,14.6246517 C7.11505318,14.5559719 7.02403298,14.493475 7.07217615,14.5921945 C7.00253312,14.4493185 7.03097072,14.2471068 7.19806809,13.9877795 C10.1525507,9.40255998 10.9989757,8.78223493 14.910134,8.59299618 C15.443008,8.56721343 15.8618062,8.12766201 15.8618062,7.59416465 L15.8618062,3.50960245 Z M23.0394888,52.0196466 C24.6963071,52.0087241 26.0305692,50.6567531 26.0196466,48.9999348 C26.0087241,47.3431166 24.6567531,46.0088545 22.9999348,46.019777 C21.3431166,46.0306995 20.0088545,47.3826706 20.019777,49.0394888 C20.0306995,50.6963071 21.3826706,52.0305692 23.0394888,52.0196466 Z M21,25.4615022 L21,35.4615022 L25,35.4615022 L25,25.4615022 L21,25.4615022 Z" id="Combined-Shape"></path>
            </g>
            <text id="FRONTANERíA" font-family="Rubik-Black, Rubik" font-size="30" font-weight="700" letter-spacing="-1" fill="#FFFFFF">
                <tspan x="63" y="40">FRONTANERíA</tspan>
            </text>
        </g>
    </g>
</svg>